<svg width="31" height="31" viewBox="0 0 31 31" fill="none" xmlns="http://www.w3.org/2000/svg">
<path d="M15.2499 19.7934C15.0805 19.7934 14.9216 19.7671 14.7734 19.7146C14.6251 19.6621 14.4874 19.5718 14.3603 19.4439L9.78534 14.8689C9.55235 14.6359 9.43586 14.3394 9.43586 13.9793C9.43586 13.6193 9.55235 13.3227 9.78534 13.0898C10.0183 12.8568 10.3204 12.7352 10.6914 12.725C11.0625 12.7149 11.3641 12.8258 11.5963 13.058L13.9791 15.4408V6.35433C13.9791 5.99426 14.1011 5.69223 14.3451 5.44823C14.5891 5.20423 14.8907 5.08265 15.2499 5.0835C15.61 5.0835 15.912 5.2055 16.156 5.4495C16.4 5.6935 16.5216 5.99511 16.5208 6.35433V15.4408L18.9036 13.058C19.1366 12.825 19.4386 12.7136 19.8097 12.7238C20.1808 12.7339 20.4824 12.8559 20.7145 13.0898C20.9475 13.3227 21.064 13.6193 21.064 13.9793C21.064 14.3394 20.9475 14.6359 20.7145 14.8689L16.1395 19.4439C16.0124 19.571 15.8747 19.6612 15.7265 19.7146C15.5782 19.768 15.4194 19.7942 15.2499 19.7934ZM7.62492 25.4168C6.92596 25.4168 6.3274 25.1678 5.82923 24.6696C5.33107 24.1714 5.08241 23.5733 5.08325 22.8752V20.3335C5.08325 19.9734 5.20525 19.6714 5.44925 19.4274C5.69325 19.1834 5.99487 19.0618 6.35409 19.0627C6.71416 19.0627 7.01619 19.1847 7.26019 19.4287C7.50419 19.6727 7.62577 19.9743 7.62492 20.3335V22.8752H22.8749V20.3335C22.8749 19.9734 22.9969 19.6714 23.2409 19.4274C23.4849 19.1834 23.7865 19.0618 24.1458 19.0627C24.5058 19.0627 24.8079 19.1847 25.0519 19.4287C25.2959 19.6727 25.4174 19.9743 25.4166 20.3335V22.8752C25.4166 23.5741 25.1675 24.1727 24.6693 24.6709C24.1712 25.169 23.573 25.4177 22.8749 25.4168H7.62492Z" fill="white"/>
</svg>
