<svg width="20" height="20" viewBox="0 0 20 20" fill="none" xmlns="http://www.w3.org/2000/svg">
<path d="M14.8577 6.78869C14.5235 6.408 14.1799 6.02731 13.8178 5.66519L13.5486 5.41449L13.6786 5.30307C14.1326 4.91329 14.4562 4.39361 14.6056 3.81414C14.755 3.23468 14.7231 2.62332 14.5142 2.06257C14.2114 1.43022 13.732 0.899077 13.134 0.53329C12.5359 0.167503 11.8447 -0.0172767 11.1439 0.00127108V1.85829C11.4742 1.85369 11.7998 1.93732 12.0871 2.10053C12.3743 2.26375 12.6128 2.50066 12.778 2.7868C12.9358 3.15821 12.778 3.56675 12.3416 4.00315C12.2766 4.07743 12.2023 4.12386 12.1373 4.18886C9.35197 1.95114 6.29735 0.688369 4.80254 2.18327C4.64596 2.34335 4.51729 2.52851 4.42187 2.73109V2.82394L4.25475 3.31606L0.160258 15.4795C0.00538204 15.9379 -0.0380638 16.4266 0.0335187 16.9051C0.105101 17.3836 0.289652 17.8382 0.571885 18.2311C0.854118 18.6241 1.22591 18.9442 1.65647 19.1648C2.08702 19.3855 2.56396 19.5004 3.04776 19.5C3.36365 19.4969 3.67705 19.4436 3.97621 19.3422L16.7146 15.1174C16.8712 15.0591 17.0091 14.9597 17.1139 14.8296L17.3088 14.6625C18.6365 13.3254 17.7824 10.7534 15.9997 8.25573C17.0582 7.63795 18.277 7.35021 19.5 7.42936V5.57234C17.8635 5.48229 16.2399 5.90769 14.8577 6.78869ZM3.43771 17.578C3.22695 17.6477 3.00096 17.6576 2.78496 17.6063C2.56895 17.5551 2.37144 17.4448 2.21446 17.2878C2.05749 17.1308 1.94723 16.9333 1.896 16.7173C1.84476 16.5013 1.85457 16.2753 1.92432 16.0645L3.18702 12.2576C4.08817 13.9762 5.47284 15.3932 7.1701 16.3338L3.43771 17.578ZM9.9369 15.4146C8.53375 15.0429 7.25374 14.307 6.22654 13.2814C5.19935 12.2558 4.46146 10.9769 4.08763 9.57422L5.01608 6.78869L5.07179 6.87225C5.17392 7.07652 5.30391 7.29008 5.43389 7.50364C5.56387 7.7172 5.58244 7.77291 5.67529 7.91218C5.76813 8.05146 5.98168 8.35787 6.1488 8.59C6.31592 8.82212 6.32521 8.84998 6.42734 8.97997C6.52947 9.10996 6.82657 9.49065 7.04012 9.74135L7.30937 10.0663C7.62505 10.4284 7.95929 10.7813 8.3121 11.1434C8.66492 11.5055 8.94345 11.7376 9.24056 12.0719L9.54695 12.3319L10.2711 12.9169L10.6147 13.1768C10.8746 13.3625 11.1253 13.5482 11.3853 13.7154L11.6731 13.9011C12.0074 14.1054 12.3416 14.3003 12.6666 14.4675H12.713L9.9369 15.4146ZM15.9812 13.344H15.9254C15.2848 13.6968 12.6201 12.8147 9.62123 9.80635C9.30555 9.49065 9.00845 9.18424 8.73919 8.87784L8.46994 8.55286L7.97786 7.95861L7.70861 7.5872C7.58791 7.41079 7.45792 7.24366 7.34651 7.07652L7.10511 6.68655L6.83586 6.25015C6.76158 6.12016 6.70587 5.99945 6.64088 5.87875C6.57589 5.75804 6.50161 5.63733 6.44591 5.50734C6.39611 5.39854 6.35271 5.28693 6.31592 5.17308C6.2695 5.05237 6.21379 4.93166 6.17665 4.82024C6.13952 4.70882 6.13023 4.64383 6.10238 4.5324C6.07452 4.42098 6.05595 4.32813 6.03739 4.23528C6.03275 4.15488 6.03275 4.07427 6.03739 3.99387C6.02844 3.91986 6.02844 3.84504 6.03739 3.77103L6.13952 3.48319C6.47376 3.14892 8.20997 3.48319 10.5311 5.24736C10.1377 5.42495 9.71703 5.53482 9.28698 5.57234V7.42936C10.2732 7.37263 11.2301 7.07279 12.0724 6.55656L12.518 6.98367C12.908 7.37365 13.2701 7.77291 13.6136 8.17217C13.0821 9.13328 12.8861 10.2441 13.0565 11.3291L14.9134 10.967C14.8587 10.6225 14.8587 10.2715 14.9134 9.92705C15.1968 10.3568 15.4482 10.8068 15.6655 11.2734C16.1854 12.499 16.1483 13.1861 15.9812 13.344Z" fill="white"/>
</svg>
